<svg xmlns="http://www.w3.org/2000/svg" width="1200" height="630" viewBox="0 0 1200 630" role="img" aria-label="לא נותנים ל-AI לשלוח ביום הראשון: איך משיקים אוטומציה רגישה בשלבים">
  <defs>
    <linearGradient id="bg" x1="0" y1="0" x2="1" y2="1">
      <stop offset="0" stop-color="#0a2440"/>
      <stop offset="0.55" stop-color="#123a5c"/>
      <stop offset="1" stop-color="#2b93c9"/>
    </linearGradient>
    <linearGradient id="accent" x1="0" y1="0" x2="1" y2="0">
      <stop offset="0" stop-color="#2b93c9"/>
      <stop offset="1" stop-color="#6ec9e8"/>
    </linearGradient>
  </defs>

  <rect width="1200" height="630" fill="url(#bg)"/>
  <g><line x1="187" y1="342" x2="231" y2="428" stroke="#6ec9e8" stroke-width="1.25" stroke-opacity="0.112"/><line x1="187" y1="342" x2="94" y2="602" stroke="#6ec9e8" stroke-width="1.25" stroke-opacity="0.016"/><line x1="187" y1="342" x2="274" y2="154" stroke="#6ec9e8" stroke-width="1.25" stroke-opacity="0.052"/><line x1="187" y1="342" x2="414" y2="440" stroke="#6ec9e8" stroke-width="1.25" stroke-opacity="0.031"/><line x1="889" y1="358" x2="638" y2="516" stroke="#6ec9e8" stroke-width="1.25" stroke-opacity="0.005"/><line x1="889" y1="358" x2="756" y2="112" stroke="#6ec9e8" stroke-width="1.25" stroke-opacity="0.012"/><line x1="889" y1="358" x2="1014" y2="258" stroke="#6ec9e8" stroke-width="1.25" stroke-opacity="0.076"/><line x1="889" y1="358" x2="764" y2="522" stroke="#6ec9e8" stroke-width="1.25" stroke-opacity="0.052"/><line x1="889" y1="358" x2="1028" y2="142" stroke="#6ec9e8" stroke-width="1.25" stroke-opacity="0.025"/><line x1="348" y1="608" x2="231" y2="428" stroke="#6ec9e8" stroke-width="1.25" stroke-opacity="0.045"/><line x1="348" y1="608" x2="94" y2="602" stroke="#6ec9e8" stroke-width="1.25" stroke-opacity="0.028"/><line x1="348" y1="608" x2="414" y2="440" stroke="#6ec9e8" stroke-width="1.25" stroke-opacity="0.066"/><line x1="638" y1="516" x2="764" y2="522" stroke="#6ec9e8" stroke-width="1.25" stroke-opacity="0.094"/><line x1="638" y1="516" x2="576" y2="228" stroke="#6ec9e8" stroke-width="1.25" stroke-opacity="0.008"/><line x1="638" y1="516" x2="414" y2="440" stroke="#6ec9e8" stroke-width="1.25" stroke-opacity="0.032"/><line x1="756" y1="112" x2="1014" y2="258" stroke="#6ec9e8" stroke-width="1.25" stroke-opacity="0.004"/><line x1="756" y1="112" x2="576" y2="228" stroke="#6ec9e8" stroke-width="1.25" stroke-opacity="0.047"/><line x1="756" y1="112" x2="596" y2="96" stroke="#6ec9e8" stroke-width="1.25" stroke-opacity="0.076"/><line x1="756" y1="112" x2="1028" y2="142" stroke="#6ec9e8" stroke-width="1.25" stroke-opacity="0.017"/><line x1="1014" y1="258" x2="1028" y2="142" stroke="#6ec9e8" stroke-width="1.25" stroke-opacity="0.099"/><line x1="231" y1="428" x2="94" y2="602" stroke="#6ec9e8" stroke-width="1.25" stroke-opacity="0.043"/><line x1="231" y1="428" x2="274" y2="154" stroke="#6ec9e8" stroke-width="1.25" stroke-opacity="0.018"/><line x1="231" y1="428" x2="414" y2="440" stroke="#6ec9e8" stroke-width="1.25" stroke-opacity="0.063"/><line x1="576" y1="228" x2="596" y2="96" stroke="#6ec9e8" stroke-width="1.25" stroke-opacity="0.088"/><line x1="576" y1="228" x2="414" y2="440" stroke="#6ec9e8" stroke-width="1.25" stroke-opacity="0.018"/><circle cx="187" cy="342" r="4" fill="#6ec9e8" fill-opacity="0.28"/><circle cx="889" cy="358" r="4" fill="#6ec9e8" fill-opacity="0.28"/><circle cx="348" cy="608" r="3" fill="#6ec9e8" fill-opacity="0.28"/><circle cx="638" cy="516" r="5" fill="#6ec9e8" fill-opacity="0.28"/><circle cx="756" cy="112" r="3" fill="#6ec9e8" fill-opacity="0.28"/><circle cx="1014" cy="258" r="3" fill="#6ec9e8" fill-opacity="0.28"/><circle cx="231" cy="428" r="5" fill="#6ec9e8" fill-opacity="0.28"/><circle cx="94" cy="602" r="5" fill="#6ec9e8" fill-opacity="0.28"/><circle cx="274" cy="154" r="3" fill="#6ec9e8" fill-opacity="0.28"/><circle cx="764" cy="522" r="2" fill="#6ec9e8" fill-opacity="0.28"/><circle cx="576" cy="228" r="5" fill="#6ec9e8" fill-opacity="0.28"/><circle cx="596" cy="96" r="5" fill="#6ec9e8" fill-opacity="0.28"/><circle cx="1028" cy="142" r="2" fill="#6ec9e8" fill-opacity="0.28"/><circle cx="414" cy="440" r="3" fill="#6ec9e8" fill-opacity="0.28"/></g>

  <rect x="80" y="498" width="132" height="6" rx="3" fill="url(#accent)"/>

  <text x="80" y="82" font-family="'IBM Plex Sans Hebrew','Rubik','Segoe UI',Arial,sans-serif" font-size="30" font-weight="700" letter-spacing="0.5" fill="#ffffff">AutoSmart</text>

  <g>
    <rect x="836" y="86" rx="20" ry="20" width="284" height="40" fill="#6ec9e8" fill-opacity="0.16"/>
    <text x="1098" y="112" text-anchor="end" font-family="'IBM Plex Sans Hebrew','Rubik','Segoe UI',Arial,sans-serif" font-size="22" fill="#dff2fb">אוטומציה</text>
  </g>

  <text text-anchor="end" font-family="'IBM Plex Sans Hebrew','Rubik','Segoe UI',Arial,sans-serif" font-size="66" font-weight="700" fill="#ffffff">
    <tspan x="1120" y="255">לא נותנים ל-AI לשלוח</tspan><tspan x="1120" y="337">ביום הראשון: כך משיקים</tspan><tspan x="1120" y="419">אוטומציה בשלבים</tspan>
  </text>
</svg>
